<svg xmlns="http://www.w3.org/2000/svg" version="1" viewBox="0 0 346 346"><g fill="#FFF"><path d="M340 260h2v-1h1l1-1 1-1v-1l1-1v-1V93c0-4-4-8-8-8H102a8 8 0 0 0-5 2v1h-1v1h-1v50a7 7 0 1 0 15 0v-30l66 59-1 1-65 66v-49a7 7 0 1 0-15 0v9H56a7 7 0 1 0 0 15h39v43c0 4 3 8 7 8h237v-1h1zm-9-25l-66-66 49-42a7 7 0 0 0-9-11l-85 71-98-87h209v135zm-145-55l1-2 28 25a7 7 0 0 0 10 0l29-24 1 1 65 66H120l66-66z"/><path d="M8 171h126a7 7 0 1 0 0-15H8a7 7 0 1 0 0 15zM21 129h57a7 7 0 1 0 0-15H21a7 7 0 1 0 0 15zM63 227H8a7 7 0 1 0 0 15h55a7 7 0 1 0 0-15z"/></g></svg>