<?xml version="1.0" standalone="no"?>
<!DOCTYPE svg PUBLIC "-//W3C//DTD SVG 20010904//EN"
 "http://www.w3.org/TR/2001/REC-SVG-20010904/DTD/svg10.dtd">
<svg version="1.0" xmlns="http://www.w3.org/2000/svg"
 width="604.000000pt" height="604.000000pt" viewBox="0 0 604.000000 604.000000"
 preserveAspectRatio="xMidYMid meet">
<metadata>
Created by potrace 1.11, written by Peter Selinger 2001-2013
</metadata>
<g transform="translate(0.000000,604.000000) scale(0.100000,-0.100000)"
fill="#000000" stroke="none">
<path d="M2915 5965 c-49 -30 -99 -60 -110 -67 -11 -7 -22 -13 -25 -13 -3 0
-23 -12 -45 -26 -22 -14 -47 -29 -55 -32 -8 -4 -28 -15 -45 -25 -16 -10 -50
-30 -75 -44 -25 -14 -100 -57 -167 -97 -68 -39 -127 -71 -133 -71 -5 0 -10 -4
-10 -9 0 -5 -10 -13 -22 -17 -13 -3 -30 -12 -38 -19 -8 -7 -40 -25 -70 -41
-30 -16 -57 -31 -60 -34 -5 -5 -24 -16 -99 -57 -25 -14 -53 -32 -62 -39 -8 -8
-19 -14 -23 -14 -4 0 -45 -22 -92 -50 -47 -27 -89 -50 -94 -50 -6 0 -10 -4
-10 -10 0 -5 -4 -10 -9 -10 -6 0 -76 -39 -158 -86 -81 -48 -164 -95 -183 -106
-73 -42 -436 -252 -465 -269 -16 -10 -41 -24 -55 -32 -14 -7 -43 -24 -65 -37
-22 -12 -60 -34 -85 -48 -25 -13 -53 -31 -62 -40 -10 -8 -18 -12 -18 -8 0 4
-12 -1 -27 -12 -16 -11 -81 -49 -145 -86 l-118 -68 0 -1439 c0 -852 4 -1439 9
-1439 5 0 77 -40 161 -90 84 -49 154 -90 156 -90 1 0 27 -14 56 -31 133 -80
292 -169 300 -169 4 0 8 -4 8 -10 0 -5 5 -10 10 -10 6 0 40 -18 76 -40 36 -22
70 -40 74 -40 4 0 13 -7 20 -15 7 -8 21 -15 30 -15 10 0 20 -4 22 -8 3 -8 48
-36 138 -85 30 -17 66 -38 80 -47 14 -10 35 -21 48 -24 12 -4 22 -12 22 -17 0
-5 4 -9 9 -9 5 0 86 -45 181 -100 94 -55 173 -100 175 -100 2 0 33 -18 69 -40
36 -22 70 -40 76 -40 5 0 10 -4 10 -10 0 -5 4 -10 9 -10 6 0 60 -29 121 -65
61 -36 130 -76 153 -89 23 -13 87 -49 142 -81 55 -32 109 -63 120 -69 11 -6
22 -13 25 -16 3 -3 19 -12 35 -21 17 -8 114 -64 216 -123 l186 -107 79 47
c141 84 179 105 197 111 9 3 17 9 17 14 0 5 4 9 9 9 12 0 292 161 309 177 7 7
18 13 23 13 5 0 37 17 71 38 35 21 70 41 78 45 8 4 33 18 55 31 22 14 51 31
65 39 14 7 86 49 160 92 74 43 155 89 180 103 25 13 50 28 55 32 6 4 33 20 60
35 81 46 149 85 165 95 29 19 623 360 626 360 2 0 27 15 56 33 30 17 67 40 83
49 17 9 69 39 118 67 48 28 129 74 180 103 50 28 94 55 97 59 3 3 15 9 28 13
l22 7 0 1439 0 1438 -77 45 c-43 25 -100 57 -127 72 -28 15 -73 41 -100 58
-28 16 -64 38 -81 47 -16 10 -97 57 -180 105 -158 92 -192 108 -197 97 -2 -4
-20 -16 -40 -27 -20 -11 -79 -44 -130 -74 -51 -30 -106 -62 -123 -71 -16 -10
-54 -31 -83 -48 -28 -18 -64 -38 -80 -46 l-27 -14 0 280 c0 245 -2 283 -16
299 -9 11 -19 19 -22 19 -5 0 -314 177 -332 190 -5 4 -41 24 -80 45 -38 21
-77 43 -85 49 -15 11 -24 16 -99 58 -91 51 -126 73 -129 80 -2 4 -12 8 -22 8
-10 0 -21 4 -24 9 -5 7 -83 53 -233 138 -23 12 -93 53 -155 89 -62 37 -138 80
-168 97 -30 17 -67 38 -82 49 -14 10 -34 18 -45 17 -10 0 -58 -25 -108 -54z
m248 -1741 c73 -42 152 -88 177 -102 85 -47 181 -105 178 -107 -3 -2 -295
-171 -368 -212 -19 -11 -63 -37 -97 -57 -34 -20 -66 -36 -72 -36 -6 0 -11 -3
-11 -8 0 -4 -17 -16 -37 -27 -21 -11 -72 -39 -113 -63 -84 -48 -96 -55 -160
-91 -25 -14 -46 -29 -48 -33 -2 -4 -8 -8 -14 -8 -8 0 -146 -78 -243 -137 -11
-7 -28 -16 -38 -19 -27 -10 -45 -54 -37 -92 4 -18 5 -34 1 -36 -6 -4 -6 -63 0
-92 1 -5 1 -13 -1 -19 -2 -13 -2 -128 0 -140 1 -6 2 -14 1 -20 -3 -13 -3 -189
0 -201 1 -5 1 -13 0 -19 -2 -8 -1 -176 1 -210 0 -5 -1 -14 -2 -20 -5 -21 0
-45 10 -45 5 0 38 -17 72 -38 35 -21 70 -41 78 -45 8 -4 30 -16 49 -28 19 -11
93 -54 165 -96 72 -41 145 -83 161 -93 17 -10 57 -33 90 -52 33 -19 72 -42 86
-51 24 -16 54 -15 69 2 5 6 70 42 117 65 13 6 23 14 23 19 0 4 4 7 9 7 5 0 49
23 98 51 48 29 113 65 143 82 30 16 60 33 65 37 8 6 115 68 312 181 17 10 121
70 231 133 111 64 203 116 206 116 3 0 6 -65 6 -145 0 -80 -4 -145 -8 -145 -5
0 -91 -48 -193 -106 -101 -59 -204 -118 -229 -132 -25 -14 -57 -32 -72 -41
-64 -37 -324 -188 -357 -206 -20 -11 -64 -37 -99 -58 -35 -20 -64 -37 -66 -37
-2 0 -52 -29 -111 -64 l-108 -65 -46 26 c-25 14 -62 36 -81 48 -29 18 -237
137 -370 212 -19 11 -136 79 -260 150 -124 72 -242 140 -262 152 -21 11 -55
31 -75 43 -21 12 -51 29 -68 38 -16 9 -42 24 -57 34 l-28 18 0 572 1 573 42
24 c23 13 51 29 62 36 11 7 31 18 45 25 14 7 27 15 30 18 3 3 21 14 40 24 19
9 56 30 82 46 25 15 67 40 92 54 42 23 258 147 298 171 27 16 161 92 239 137
13 7 26 15 29 18 3 3 16 11 30 18 25 12 43 22 175 100 39 22 74 41 78 41 4 1
67 -33 140 -75z"/>
</g>
</svg>
